<svg width="16" height="28" viewBox="0 0 16 28" fill="none" xmlns="http://www.w3.org/2000/svg">
<path d="M13.9987 27.5002C13.8016 27.5011 13.6063 27.4627 13.4243 27.3871C13.2423 27.3116 13.0772 27.2004 12.9387 27.0602L0.93868 15.0602C0.657779 14.7789 0.5 14.3977 0.5 14.0002C0.5 13.6027 0.657779 13.2214 0.93868 12.9402L12.9387 0.940181C13.223 0.675221 13.5991 0.530975 13.9877 0.537831C14.3763 0.544688 14.7471 0.702111 15.0219 0.976937C15.2967 1.25176 15.4542 1.62253 15.461 2.01114C15.4679 2.39974 15.3236 2.77583 15.0587 3.06018L4.11868 14.0002L15.0587 24.9402C15.3396 25.2214 15.4974 25.6027 15.4974 26.0002C15.4974 26.3977 15.3396 26.7789 15.0587 27.0602C14.9202 27.2004 14.7551 27.3116 14.5731 27.3871C14.391 27.4627 14.1958 27.5011 13.9987 27.5002Z" fill="#C4C4C4"/>
</svg>
