<svg width="16" height="17" viewBox="0 0 16 17" fill="none" xmlns="http://www.w3.org/2000/svg">
<path d="M5.96004 14.0769C4.97147 14.0807 4.01833 13.709 3.29338 13.0369C2.94033 12.7104 2.65862 12.3145 2.46595 11.8739C2.27329 11.4334 2.17383 10.9577 2.17383 10.4769C2.17383 9.99602 2.27329 9.52037 2.46595 9.07981C2.65862 8.63925 2.94033 8.24331 3.29338 7.91686L8.33338 3.15686C8.85173 2.68371 9.52822 2.42139 10.23 2.42139C10.9319 2.42139 11.6084 2.68371 12.1267 3.15686C12.397 3.40775 12.6137 3.71074 12.7638 4.04758C12.9138 4.38442 12.9942 4.74814 13 5.11686C13.0019 5.43551 12.9376 5.75107 12.8114 6.04366C12.6852 6.33625 12.4997 6.59952 12.2667 6.81686L7.22004 11.5835C6.91552 11.8661 6.51546 12.0231 6.10004 12.0231C5.68463 12.0231 5.28457 11.8661 4.98004 11.5835C4.82894 11.4443 4.70833 11.2753 4.62584 11.0871C4.54334 10.8989 4.50075 10.6957 4.50075 10.4902C4.50075 10.2847 4.54334 10.0815 4.62584 9.89331C4.70833 9.70512 4.82894 9.53609 4.98004 9.39686L9.64671 5.00353C9.74046 4.90989 9.86754 4.8573 10 4.8573C10.1325 4.8573 10.2596 4.90989 10.3534 5.00353C10.447 5.09728 10.4996 5.22436 10.4996 5.35686C10.4996 5.48936 10.447 5.61644 10.3534 5.71019L5.68671 10.1035C5.63437 10.1492 5.59241 10.2056 5.56367 10.2688C5.53492 10.3321 5.52004 10.4007 5.52004 10.4702C5.52004 10.5397 5.53492 10.6083 5.56367 10.6716C5.59241 10.7348 5.63437 10.7912 5.68671 10.8369C5.80747 10.9401 5.96114 10.9969 6.12004 10.9969C6.27895 10.9969 6.43262 10.9401 6.55338 10.8369L11.6 6.08353C11.7284 5.95769 11.8301 5.80718 11.8988 5.64106C11.9676 5.47494 12.002 5.29663 12 5.11686C11.9945 4.88515 11.9421 4.65696 11.8458 4.44612C11.7495 4.23527 11.6115 4.04615 11.44 3.89019C11.1109 3.58516 10.6788 3.41568 10.23 3.41568C9.78132 3.41568 9.34915 3.58516 9.02004 3.89019L4.00004 8.64353C3.74582 8.87649 3.54283 9.15977 3.40396 9.47538C3.26509 9.791 3.19338 10.132 3.19338 10.4769C3.19338 10.8217 3.26509 11.1627 3.40396 11.4783C3.54283 11.794 3.74582 12.0772 4.00004 12.3102C4.54305 12.8163 5.25775 13.0977 6.00004 13.0977C6.74234 13.0977 7.45704 12.8163 8.00004 12.3102L12.9934 7.58353C13.0393 7.53636 13.0943 7.49887 13.155 7.47327C13.2157 7.44767 13.2808 7.43448 13.3467 7.43448C13.4126 7.43448 13.4778 7.44767 13.5385 7.47327C13.5991 7.49887 13.6541 7.53636 13.7 7.58353C13.7937 7.67728 13.8463 7.80436 13.8463 7.93686C13.8463 8.06936 13.7937 8.19644 13.7 8.29019L8.66671 13.0369C7.93205 13.7191 6.96252 14.0916 5.96004 14.0769Z" fill="black"/>
</svg>
