<svg width="19" height="18" viewBox="0 0 19 18" fill="none" xmlns="http://www.w3.org/2000/svg">
<path d="M18.03 13.25C17.94 13.25 15.92 12.89 15.92 7C15.92 2.84 13.5 0.25 9.5 0.25C5.5 0.25 3.08 2.84 3.08 7C3.08 13 0.99 13.25 1 13.25C0.801088 13.25 0.610322 13.329 0.46967 13.4697C0.329018 13.6103 0.25 13.8011 0.25 14C0.25 14.1989 0.329018 14.3897 0.46967 14.5303C0.610322 14.671 0.801088 14.75 1 14.75H5.83C5.99694 15.6007 6.45423 16.367 7.12366 16.9178C7.79309 17.4686 8.63308 17.7698 9.5 17.7698C10.3669 17.7698 11.2069 17.4686 11.8763 16.9178C12.5458 16.367 13.0031 15.6007 13.17 14.75H18.01C18.2089 14.75 18.3997 14.671 18.5403 14.5303C18.681 14.3897 18.76 14.1989 18.76 14C18.76 13.8011 18.681 13.6103 18.5403 13.4697C18.3997 13.329 18.2089 13.25 18.01 13.25H18.03ZM9.5 16.25C9.0363 16.2491 8.5843 16.1044 8.20636 15.8357C7.82843 15.567 7.54319 15.1877 7.39 14.75H11.61C11.4568 15.1877 11.1716 15.567 10.7936 15.8357C10.4157 16.1044 9.9637 16.2491 9.5 16.25ZM3.26 13.25C3.98 12.16 4.58 10.25 4.58 7C4.58 3.75 6.38 1.75 9.5 1.75C12.62 1.75 14.42 3.66 14.42 7C14.42 10.34 15.02 12.16 15.74 13.25H3.26Z" fill="white"/>
</svg>
