<svg width="17" height="16" viewBox="0 0 17 16" fill="none" xmlns="http://www.w3.org/2000/svg">
<path d="M12.3332 13.8332C12.2315 13.8312 12.1323 13.8012 12.0465 13.7465L8.49984 11.2732L4.95317 13.7465C4.87483 13.7942 4.78488 13.8194 4.69317 13.8194C4.60146 13.8194 4.51151 13.7942 4.43317 13.7465C4.35645 13.707 4.29144 13.648 4.24465 13.5754C4.19785 13.5029 4.17091 13.4194 4.1665 13.3332V3.99984C4.1665 3.51361 4.35966 3.04729 4.70347 2.70347C5.04729 2.35966 5.51361 2.1665 5.99984 2.1665H10.9998C11.4861 2.1665 11.9524 2.35966 12.2962 2.70347C12.64 3.04729 12.8332 3.51361 12.8332 3.99984V13.3332C12.8335 13.4239 12.8088 13.5131 12.7617 13.5907C12.7147 13.6683 12.6471 13.7315 12.5665 13.7732C12.495 13.8124 12.4147 13.833 12.3332 13.8332ZM8.49984 10.1665C8.602 10.1654 8.70205 10.1957 8.7865 10.2532L11.8332 12.3732V3.99984C11.8332 3.77882 11.7454 3.56686 11.5891 3.41058C11.4328 3.2543 11.2209 3.1665 10.9998 3.1665H5.99984C5.77882 3.1665 5.56686 3.2543 5.41058 3.41058C5.2543 3.56686 5.1665 3.77882 5.1665 3.99984V12.3732L8.21317 10.2532C8.29763 10.1957 8.39767 10.1654 8.49984 10.1665Z" fill="black"/>
</svg>
