<svg width="25" height="24" viewBox="0 0 25 24" fill="none" xmlns="http://www.w3.org/2000/svg">
<path d="M5 20.25C4.80189 20.2474 4.61263 20.1676 4.47253 20.0275C4.33244 19.8874 4.25259 19.6981 4.25 19.5V4.5C4.25 4.30109 4.32902 4.11032 4.46967 3.96967C4.61032 3.82902 4.80109 3.75 5 3.75C5.19891 3.75 5.38968 3.82902 5.53033 3.96967C5.67098 4.11032 5.75 4.30109 5.75 4.5V19.5C5.74741 19.6981 5.66756 19.8874 5.52747 20.0275C5.38737 20.1676 5.19811 20.2474 5 20.25Z" fill="white"/>
<path d="M20 20.25H5C4.80109 20.25 4.61032 20.171 4.46967 20.0303C4.32902 19.8897 4.25 19.6989 4.25 19.5C4.25 19.3011 4.32902 19.1103 4.46967 18.9697C4.61032 18.829 4.80109 18.75 5 18.75H20C20.1989 18.75 20.3897 18.829 20.5303 18.9697C20.671 19.1103 20.75 19.3011 20.75 19.5C20.75 19.6989 20.671 19.8897 20.5303 20.0303C20.3897 20.171 20.1989 20.25 20 20.25Z" fill="white"/>
<path d="M8.5 16.75C8.30189 16.7474 8.11263 16.6676 7.97253 16.5275C7.83244 16.3874 7.75259 16.1981 7.75 16V12C7.75 11.8011 7.82902 11.6103 7.96967 11.4697C8.11032 11.329 8.30109 11.25 8.5 11.25C8.69891 11.25 8.88968 11.329 9.03033 11.4697C9.17098 11.6103 9.25 11.8011 9.25 12V16C9.24741 16.1981 9.16756 16.3874 9.02747 16.5275C8.88737 16.6676 8.69811 16.7474 8.5 16.75Z" fill="white"/>
<path d="M12 16.75C11.8019 16.7474 11.6126 16.6676 11.4725 16.5275C11.3324 16.3874 11.2526 16.1981 11.25 16V8C11.25 7.80109 11.329 7.61032 11.4697 7.46967C11.6103 7.32902 11.8011 7.25 12 7.25C12.1989 7.25 12.3897 7.32902 12.5303 7.46967C12.671 7.61032 12.75 7.80109 12.75 8V16C12.7474 16.1981 12.6676 16.3874 12.5275 16.5275C12.3874 16.6676 12.1981 16.7474 12 16.75Z" fill="white"/>
<path d="M15.5 16.75C15.3019 16.7474 15.1126 16.6676 14.9725 16.5275C14.8324 16.3874 14.7526 16.1981 14.75 16V12C14.75 11.8011 14.829 11.6103 14.9697 11.4697C15.1103 11.329 15.3011 11.25 15.5 11.25C15.6989 11.25 15.8897 11.329 16.0303 11.4697C16.171 11.6103 16.25 11.8011 16.25 12V16C16.2474 16.1981 16.1676 16.3874 16.0275 16.5275C15.8874 16.6676 15.6981 16.7474 15.5 16.75Z" fill="white"/>
<path d="M19 16.75C18.8019 16.7474 18.6126 16.6676 18.4725 16.5275C18.3324 16.3874 18.2526 16.1981 18.25 16V8C18.25 7.80109 18.329 7.61032 18.4697 7.46967C18.6103 7.32902 18.8011 7.25 19 7.25C19.1989 7.25 19.3897 7.32902 19.5303 7.46967C19.671 7.61032 19.75 7.80109 19.75 8V16C19.7474 16.1981 19.6676 16.3874 19.5275 16.5275C19.3874 16.6676 19.1981 16.7474 19 16.75Z" fill="white"/>
</svg>
