<svg width="50" height="50" viewBox="0 0 50 50" fill="none" xmlns="http://www.w3.org/2000/svg">
<path d="M8.20502 8.205C4.31943 12.09 1.90112 17.2021 1.36214 22.6703C0.823149 28.1385 2.19684 33.6243 5.24914 38.1932C8.30144 42.7621 12.8435 46.1313 18.1014 47.7268C23.3594 49.3222 29.0078 49.0452 34.0844 46.9429C39.161 44.8407 43.3516 41.0432 45.9422 36.1976C48.5328 31.352 49.3631 25.758 48.2917 20.3688C47.2202 14.9796 44.3133 10.1287 40.0662 6.64249C35.8192 3.15629 30.4947 1.25056 25 1.25V7.5M25 25L12.5 12.5M47.5 25H42.5M25 42.5V47.5M7.50002 25H2.50002" stroke="#F69912" stroke-width="2.5" stroke-linecap="round"/>
</svg>
