<svg width="50" height="50" viewBox="0 0 50 50" fill="none" xmlns="http://www.w3.org/2000/svg">
<path d="M1.25 25C1.25 13.805 1.25 8.205 4.7275 4.7275C8.205 1.25 13.8025 1.25 25 1.25C36.195 1.25 41.795 1.25 45.2725 4.7275C48.75 8.205 48.75 13.8025 48.75 25C48.75 36.195 48.75 41.795 45.2725 45.2725C41.795 48.75 36.1975 48.75 25 48.75C13.805 48.75 8.205 48.75 4.7275 45.2725C1.25 41.795 1.25 36.1975 1.25 25Z" stroke="#F69912" stroke-width="1.5" stroke-linecap="round" stroke-linejoin="round"/>
<path d="M20 16.25C20 15.2554 19.6049 14.3016 18.9017 13.5983C18.1984 12.8951 17.2446 12.5 16.25 12.5C15.2554 12.5 14.3016 12.8951 13.5983 13.5983C12.8951 14.3016 12.5 15.2554 12.5 16.25C12.5 17.2446 12.8951 18.1984 13.5983 18.9017C14.3016 19.6049 15.2554 20 16.25 20C17.2446 20 18.1984 19.6049 18.9017 18.9017C19.6049 18.1984 20 17.2446 20 16.25ZM20 16.25H37.5M30 33.75C30 32.7554 30.3951 31.8016 31.0983 31.0983C31.8016 30.3951 32.7554 30 33.75 30C34.7446 30 35.6984 30.3951 36.4016 31.0983C37.1049 31.8016 37.5 32.7554 37.5 33.75C37.5 34.7446 37.1049 35.6984 36.4016 36.4016C35.6984 37.1049 34.7446 37.5 33.75 37.5C32.7554 37.5 31.8016 37.1049 31.0983 36.4016C30.3951 35.6984 30 34.7446 30 33.75ZM30 33.75H12.5" stroke="#F69912" stroke-width="1.5" stroke-linecap="round" stroke-linejoin="round"/>
</svg>
