<svg width="12" height="12" viewBox="0 0 12 12" fill="none" xmlns="http://www.w3.org/2000/svg">
<path d="M10.9463 0.966559C10.8798 0.920706 10.8032 0.891864 10.7229 0.882565C10.6427 0.873267 10.5615 0.883795 10.4863 0.913226C9.6927 1.25073 8.85564 1.47514 7.99964 1.57989C7.45824 1.43509 6.94145 1.21039 6.4663 0.913226C5.85254 0.535312 5.17465 0.273197 4.4663 0.139893C3.32836 0.24053 2.20808 0.486993 1.13297 0.873226C1.03393 0.906678 0.947863 0.970331 0.886876 1.05523C0.825889 1.14014 0.793047 1.24202 0.792969 1.34656V11.3332C0.792969 11.4658 0.845647 11.593 0.939415 11.6868C1.03318 11.7805 1.16036 11.8332 1.29297 11.8332C1.42558 11.8332 1.55275 11.7805 1.64652 11.6868C1.74029 11.593 1.79297 11.4658 1.79297 11.3332V7.43323C2.62303 7.13276 3.4876 6.93789 4.3663 6.85323C4.93054 6.99248 5.47012 7.21731 5.9663 7.51989C6.54639 7.87446 7.18189 8.12911 7.8463 8.27322H7.99964C8.96518 8.15133 9.90949 7.89786 10.8063 7.51989C10.9005 7.48353 10.9815 7.41948 11.0387 7.33618C11.0958 7.25288 11.1263 7.15423 11.1263 7.05323V1.37989C11.1313 1.30165 11.1176 1.22334 11.0863 1.15146C11.055 1.07958 11.007 1.0162 10.9463 0.966559ZM10.1663 6.71989C9.47372 7.00665 8.74443 7.19514 7.99964 7.27989C7.45824 7.13509 6.94145 6.91039 6.4663 6.61323C5.85254 6.23531 5.17465 5.9732 4.4663 5.83989H4.33297C3.4748 5.9172 2.62887 6.09623 1.81297 6.37323V1.70656C2.64303 1.40609 3.5076 1.21123 4.3863 1.12656C4.95054 1.26582 5.49012 1.49064 5.9863 1.79323C6.56639 2.14779 7.20189 2.40244 7.8663 2.54656C8.64854 2.51588 9.41971 2.35127 10.1463 2.05989L10.1663 6.71989Z" fill="black"/>
</svg>
