<svg width="21" height="18" viewBox="0 0 21 18" fill="none" xmlns="http://www.w3.org/2000/svg">
<path fill-rule="evenodd" clip-rule="evenodd" d="M16.5 1.5H4.5C4.22386 1.5 4 1.72386 4 2V3H17V2C17 1.72386 16.7761 1.5 16.5 1.5ZM18.5 3.26756V2C18.5 0.895431 17.6046 0 16.5 0H4.5C3.39543 0 2.5 0.895431 2.5 2V3.26756C1.9022 3.61337 1.5 4.25972 1.5 5V8C0.947715 8 0.5 8.44772 0.5 9V15C0.5 16.6569 1.84315 18 3.5 18H17.5C19.1569 18 20.5 16.6569 20.5 15V7C20.5 6.44772 20.0523 6 19.5 6V5C19.5 4.25972 19.0978 3.61337 18.5 3.26756ZM3.5 4.5H17.5C17.7761 4.5 18 4.72386 18 5V6H9.74264C8.94699 6 8.18393 6.31607 7.62132 6.87868L6.5 8H3V5C3 4.72386 3.22386 4.5 3.5 4.5ZM7.12132 9.5L7.56066 9.06066L8.68198 7.93934C8.96329 7.65803 9.34482 7.5 9.74264 7.5H19V15C19 15.8284 18.3284 16.5 17.5 16.5H3.5C2.67157 16.5 2 15.8284 2 15V9.5H6.5H7.12132ZM12.5 11.25H16.5V9.75H12.5V11.25Z" fill="white"/>
</svg>
