<svg width="45" height="58" viewBox="0 0 45 58" fill="none" xmlns="http://www.w3.org/2000/svg">
<path fill-rule="evenodd" clip-rule="evenodd" d="M8.94998 6.07495C8.94998 4.58311 9.54261 3.15237 10.5975 2.09748C11.6524 1.04258 13.0831 0.449951 14.575 0.449951C16.0668 0.449951 17.4976 1.04258 18.5525 2.09748C19.6073 3.15237 20.2 4.58311 20.2 6.07495V14.592C20.9201 14.2149 21.7134 13.9983 22.5252 13.9571C23.3371 13.9159 24.1482 14.051 24.9028 14.3532C25.6574 14.6554 26.3376 15.1175 26.8966 15.7076C27.4556 16.2978 27.8801 17.0021 28.141 17.7719C28.9932 17.2535 29.968 16.9711 30.9655 16.9538C31.9629 16.9365 32.9469 17.1849 33.8166 17.6735C34.6863 18.1621 35.4104 18.8733 35.9144 19.7341C36.4185 20.5949 36.6844 21.5744 36.685 22.572V23.205C37.1691 23.0359 37.6782 22.9497 38.191 22.95H39.313C42.421 22.95 44.938 25.47 44.938 28.575V39.255C44.9473 39.3195 44.9523 39.3847 44.953 39.45C44.953 45.87 42.523 50.451 38.749 53.385C35.035 56.274 30.175 57.45 25.453 57.45C20.683 57.45 16.648 56.253 13.201 54.021C9.77797 51.807 7.01198 48.621 4.68398 44.751C3.67542 43.2113 2.69723 41.652 1.74998 40.074C-1.64902 34.4729 2.46998 27.45 8.94998 27.45V6.07495ZM7.09598 43.227C6.09515 41.7035 5.12496 40.1602 4.18598 38.598C1.97498 34.95 4.62398 30.3 8.94998 30.3H9.09998V34.95C9.09998 35.308 9.24221 35.6514 9.49538 35.9045C9.74856 36.1577 10.0919 36.3 10.45 36.3C10.808 36.3 11.1514 36.1577 11.4046 35.9045C11.6577 35.6514 11.8 35.308 11.8 34.95V6.07495C11.8 5.33898 12.0923 4.63314 12.6128 4.11273C13.1332 3.59232 13.839 3.29995 14.575 3.29995C15.311 3.29995 16.0168 3.59232 16.5372 4.11273C17.0576 4.63314 17.35 5.33898 17.35 6.07495L17.341 27.45C17.341 27.808 17.4832 28.1514 17.7364 28.4045C17.9896 28.6577 18.3329 28.8 18.691 28.8C19.049 28.8 19.3924 28.6577 19.6456 28.4045C19.8987 28.1514 20.041 27.808 20.041 27.45V19.503C20.0822 18.7888 20.3972 18.1181 20.9205 17.6305C21.4439 17.1428 22.1351 16.8758 22.8504 16.8851C23.5657 16.8944 24.2498 17.1792 24.7603 17.6803C25.2708 18.1813 25.5683 18.86 25.591 19.575V26.25C25.591 26.608 25.7332 26.9514 25.9864 27.2045C26.2396 27.4577 26.5829 27.6 26.941 27.6C27.299 27.6 27.6424 27.4577 27.8956 27.2045C28.1487 26.9514 28.291 26.608 28.291 26.25V24.63C28.2992 24.5693 28.3032 24.5082 28.303 24.447L28.297 22.575C28.2966 22.2109 28.3679 21.8504 28.5068 21.5139C28.6458 21.1775 28.8496 20.8717 29.1068 20.614C29.3639 20.3563 29.6692 20.1518 30.0054 20.0121C30.3416 19.8724 30.702 19.8003 31.066 19.7999C31.43 19.7996 31.7905 19.8709 32.127 20.0098C32.4635 20.1488 32.7693 20.3526 33.027 20.6097C33.2846 20.8669 33.4892 21.1722 33.6288 21.5084C33.7685 21.8445 33.8406 22.2049 33.841 22.569V28.95C33.841 29.308 33.9832 29.6514 34.2364 29.9045C34.4896 30.1577 34.8329 30.3 35.191 30.3C35.549 30.3 35.8924 30.1577 36.1456 29.9045C36.3987 29.6514 36.541 29.308 36.541 28.95V27.45C36.541 27.0123 36.7148 26.5927 37.0242 26.2832C37.3337 25.9738 37.7534 25.8 38.191 25.8H39.313C40.846 25.8 42.088 27.042 42.088 28.575V39.45C42.088 39.51 42.094 39.567 42.1 39.621L42.103 39.642C42.055 45.156 39.982 48.813 37 51.132C33.928 53.52 29.752 54.6 25.45 54.6C21.19 54.6 17.701 53.5379 14.749 51.63C11.779 49.7099 9.28898 46.884 7.11098 43.254C7.10493 43.2445 7.0999 43.2345 7.09598 43.224" fill="#F69912"/>
</svg>
