<svg width="60" height="61" viewBox="0 0 60 61" fill="none" xmlns="http://www.w3.org/2000/svg">
<path d="M17.5 6.125H13.125C12.462 6.125 11.8261 6.38839 11.3572 6.85723C10.8884 7.32607 10.625 7.96196 10.625 8.625V52.375C10.625 53.038 10.8884 53.6739 11.3572 54.1428C11.8261 54.6116 12.462 54.875 13.125 54.875H46.875C47.538 54.875 48.1739 54.6116 48.6428 54.1428C49.1116 53.6739 49.375 53.038 49.375 52.375V8.625C49.375 7.96196 49.1116 7.32607 48.6428 6.85723C48.1739 6.38839 47.538 6.125 46.875 6.125H30" stroke="#F69912" stroke-linecap="round" stroke-linejoin="round"/>
<path d="M15 6.125L16.7675 4.3575C17.2362 3.88863 17.872 3.62514 18.535 3.625H28.75C29.0815 3.625 29.3995 3.7567 29.6339 3.99112C29.8683 4.22554 30 4.54348 30 4.875V36.125L23.75 29.875L17.5 36.125V6.125M17.5 48H42.5M30 13H42.5M30 21.75H42.5M30 30.5H42.5M17.5 39.25H42.5" stroke="#F69912" stroke-linecap="round" stroke-linejoin="round"/>
</svg>
