<svg width="109" height="109" viewBox="0 0 109 109" fill="none" xmlns="http://www.w3.org/2000/svg">
<circle cx="54.5" cy="54.5" r="54.5" fill="#F69912" fill-opacity="0.6"/>
<g filter="url(#filter0_d_337_15978)">
<path d="M46.0005 55.6216L40.5806 54.23L43.2539 27.6797H70.6099V33.9419H49.0034L47.3921 48.4438C48.3687 47.8823 49.6016 47.3574 51.0908 46.8691C52.6045 46.3809 54.3379 46.1367 56.291 46.1367C58.7568 46.1367 60.9663 46.564 62.9194 47.4185C64.8726 48.2485 66.5327 49.4448 67.8999 51.0073C69.2915 52.5698 70.3535 54.4497 71.0859 56.647C71.8184 58.8442 72.1846 61.2979 72.1846 64.0078C72.1846 66.5713 71.8306 68.9272 71.1226 71.0757C70.439 73.2241 69.4014 75.104 68.0098 76.7153C66.6182 78.3022 64.8604 79.5352 62.7363 80.4141C60.6367 81.293 58.1587 81.7324 55.3022 81.7324C53.1538 81.7324 51.1152 81.4395 49.1865 80.8535C47.2822 80.2432 45.5732 79.3276 44.0596 78.1069C42.5703 76.8618 41.3496 75.3237 40.3975 73.4927C39.4697 71.6372 38.8838 69.4644 38.6396 66.9741H45.085C45.3779 68.9761 45.9639 70.6606 46.8428 72.0278C47.7217 73.395 48.8691 74.4326 50.2852 75.1406C51.7256 75.8242 53.3979 76.166 55.3022 76.166C56.9136 76.166 58.3418 75.8853 59.5869 75.3237C60.832 74.7622 61.8818 73.9565 62.7363 72.9067C63.5908 71.8569 64.2378 70.5874 64.6772 69.0981C65.1411 67.6089 65.373 65.9365 65.373 64.0811C65.373 62.3965 65.1411 60.834 64.6772 59.3936C64.2134 57.9531 63.5176 56.6958 62.5898 55.6216C61.6865 54.5474 60.5757 53.7173 59.2573 53.1313C57.939 52.521 56.4253 52.2158 54.7163 52.2158C52.4458 52.2158 50.7246 52.521 49.5527 53.1313C48.4053 53.7417 47.2212 54.5718 46.0005 55.6216Z" fill="white"/>
</g>
<defs>
<filter id="filter0_d_337_15978" x="34.6396" y="27.6797" width="41.5449" height="62.0527" filterUnits="userSpaceOnUse" color-interpolation-filters="sRGB">
<feFlood flood-opacity="0" result="BackgroundImageFix"/>
<feColorMatrix in="SourceAlpha" type="matrix" values="0 0 0 0 0 0 0 0 0 0 0 0 0 0 0 0 0 0 127 0" result="hardAlpha"/>
<feOffset dy="4"/>
<feGaussianBlur stdDeviation="2"/>
<feComposite in2="hardAlpha" operator="out"/>
<feColorMatrix type="matrix" values="0 0 0 0 0 0 0 0 0 0 0 0 0 0 0 0 0 0 0.25 0"/>
<feBlend mode="normal" in2="BackgroundImageFix" result="effect1_dropShadow_337_15978"/>
<feBlend mode="normal" in="SourceGraphic" in2="effect1_dropShadow_337_15978" result="shape"/>
</filter>
</defs>
</svg>
