<svg width="109" height="109" viewBox="0 0 109 109" fill="none" xmlns="http://www.w3.org/2000/svg">
<circle cx="54.5" cy="54.5" r="54.5" fill="#F69912" fill-opacity="0.6"/>
<g filter="url(#filter0_d_337_15972)">
<path d="M47.3188 51.0073H52.1528C54.521 51.0073 56.4741 50.6167 58.0122 49.8354C59.5747 49.0298 60.7344 47.9434 61.4912 46.5762C62.2725 45.1846 62.6631 43.6221 62.6631 41.8887C62.6631 39.8379 62.3213 38.1167 61.6377 36.7251C60.9541 35.3335 59.9287 34.2837 58.5615 33.5757C57.1943 32.8677 55.4609 32.5137 53.3613 32.5137C51.457 32.5137 49.7725 32.8921 48.3076 33.6489C46.8672 34.3813 45.7319 35.4312 44.9019 36.7983C44.0962 38.1655 43.6934 39.7769 43.6934 41.6323H36.9185C36.9185 38.9224 37.6021 36.4565 38.9692 34.2349C40.3364 32.0132 42.2529 30.2432 44.7188 28.9248C47.209 27.6064 50.0898 26.9473 53.3613 26.9473C56.584 26.9473 59.4038 27.521 61.8208 28.6685C64.2378 29.7915 66.1177 31.4761 67.4604 33.7222C68.8032 35.9438 69.4746 38.7148 69.4746 42.0352C69.4746 43.3779 69.1572 44.8184 68.5225 46.3564C67.9121 47.8701 66.9478 49.2861 65.6294 50.6045C64.3354 51.9229 62.6509 53.0093 60.5757 53.8638C58.5005 54.6938 56.0103 55.1089 53.105 55.1089H47.3188V51.0073ZM47.3188 56.5737V52.5088H53.105C56.4985 52.5088 59.3062 52.9116 61.5278 53.7173C63.7495 54.5229 65.4951 55.5972 66.7646 56.9399C68.0586 58.2827 68.9619 59.7598 69.4746 61.3711C70.0117 62.958 70.2803 64.5449 70.2803 66.1318C70.2803 68.6221 69.853 70.8315 68.9985 72.7603C68.1685 74.689 66.9844 76.3247 65.4463 77.6675C63.9326 79.0103 62.1504 80.0234 60.0996 80.707C58.0488 81.3906 55.8149 81.7324 53.3979 81.7324C51.0786 81.7324 48.8936 81.4028 46.8428 80.7437C44.8164 80.0845 43.022 79.1323 41.4595 77.8872C39.897 76.6177 38.6763 75.0674 37.7974 73.2363C36.9185 71.3809 36.479 69.269 36.479 66.9009H43.2539C43.2539 68.7563 43.6567 70.3799 44.4624 71.7715C45.2925 73.1631 46.4644 74.2495 47.978 75.0308C49.5161 75.7876 51.3228 76.166 53.3979 76.166C55.4731 76.166 57.2554 75.812 58.7446 75.104C60.2583 74.3716 61.418 73.2729 62.2236 71.8081C63.0537 70.3433 63.4688 68.5 63.4688 66.2783C63.4688 64.0566 63.0049 62.2378 62.0771 60.8218C61.1494 59.3813 59.8311 58.3193 58.1221 57.6357C56.4375 56.9277 54.4478 56.5737 52.1528 56.5737H47.3188Z" fill="white"/>
</g>
<defs>
<filter id="filter0_d_337_15972" x="32.479" y="26.9473" width="41.8013" height="62.7852" filterUnits="userSpaceOnUse" color-interpolation-filters="sRGB">
<feFlood flood-opacity="0" result="BackgroundImageFix"/>
<feColorMatrix in="SourceAlpha" type="matrix" values="0 0 0 0 0 0 0 0 0 0 0 0 0 0 0 0 0 0 127 0" result="hardAlpha"/>
<feOffset dy="4"/>
<feGaussianBlur stdDeviation="2"/>
<feComposite in2="hardAlpha" operator="out"/>
<feColorMatrix type="matrix" values="0 0 0 0 0 0 0 0 0 0 0 0 0 0 0 0 0 0 0.25 0"/>
<feBlend mode="normal" in2="BackgroundImageFix" result="effect1_dropShadow_337_15972"/>
<feBlend mode="normal" in="SourceGraphic" in2="effect1_dropShadow_337_15972" result="shape"/>
</filter>
</defs>
</svg>
