<svg width="16" height="16" viewBox="0 0 16 16" fill="none" xmlns="http://www.w3.org/2000/svg">
<path d="M1.50877 15.1C1.42857 15.1008 1.349 15.0858 1.27463 15.0557C1.20026 15.0257 1.13256 14.9813 1.07544 14.925C1.00994 14.8603 0.959544 14.7819 0.927851 14.6955C0.896158 14.609 0.883952 14.5167 0.892104 14.425L1.15044 11.225C1.16151 11.0764 1.22675 10.937 1.33377 10.8333L10.5504 1.61664C11.064 1.13574 11.7472 0.878025 12.4504 0.899977C13.1491 0.905398 13.8195 1.17653 14.3254 1.65831C14.8107 2.15665 15.0898 2.81994 15.1068 3.51533C15.1238 4.21072 14.8775 4.88686 14.4171 5.40831L5.1921 14.6666C5.08886 14.7695 4.95366 14.8342 4.80877 14.85L1.5671 15.1416L1.50877 15.1ZM2.3421 11.55L2.1671 13.8333L4.45044 13.625L13.5338 4.52498C13.7109 4.31537 13.8241 4.05934 13.86 3.78729C13.8958 3.51524 13.8529 3.23861 13.7361 2.99027C13.6194 2.74192 13.4339 2.5323 13.2015 2.3863C12.9692 2.2403 12.6998 2.16406 12.4254 2.16664C12.2451 2.15519 12.0643 2.18029 11.8939 2.24044C11.7235 2.30058 11.567 2.39453 11.4338 2.51664L2.3421 11.55Z" fill="#727171"/>
</svg>
