<svg width="34" height="40" viewBox="0 0 34 40" fill="none" xmlns="http://www.w3.org/2000/svg">
<path d="M5.75 40V32.98H0.75V30.48H5.75V23.655H0.75V21.155H5.75V0H21.425C24.7217 0 27.5167 1.14583 29.81 3.4375C32.1033 5.72917 33.25 8.5225 33.25 11.8175C33.25 15.1125 32.1033 17.9092 29.81 20.2075C27.5167 22.5058 24.7208 23.655 21.4225 23.655H8.25V30.48H18.25V32.98H8.25V40H5.75ZM8.25 21.1525H21.425C24 21.1525 26.1983 20.2425 28.02 18.4225C29.8417 16.6025 30.7517 14.4033 30.75 11.825C30.7483 9.24667 29.8383 7.04833 28.02 5.23C26.1967 3.41 23.9975 2.5 21.4225 2.5H8.25V21.1525Z" fill="#F69912"/>
</svg>
