<svg width="12" height="12" viewBox="0 0 12 12" fill="none" xmlns="http://www.w3.org/2000/svg">
<path d="M3.96004 11.8266C2.97147 11.8305 2.01833 11.4587 1.29338 10.7866C0.940329 10.4602 0.65862 10.0642 0.465953 9.62366C0.273287 9.18311 0.173828 8.70746 0.173828 8.22662C0.173828 7.74577 0.273287 7.27012 0.465953 6.82957C0.65862 6.38901 0.940329 5.99306 1.29338 5.66662L6.33338 0.906617C6.85173 0.433465 7.52822 0.171143 8.23004 0.171143C8.93187 0.171143 9.60836 0.433465 10.1267 0.906617C10.397 1.15751 10.6137 1.4605 10.7638 1.79733C10.9138 2.13417 10.9942 2.4979 11 2.86662C11.0019 3.18526 10.9376 3.50083 10.8114 3.79342C10.6852 4.08601 10.4997 4.34928 10.2667 4.56662L5.22004 9.33328C4.91552 9.61583 4.51546 9.77284 4.10004 9.77284C3.68463 9.77284 3.28457 9.61583 2.98004 9.33328C2.82894 9.19406 2.70833 9.02502 2.62584 8.83684C2.54334 8.64866 2.50075 8.44542 2.50075 8.23995C2.50075 8.03448 2.54334 7.83124 2.62584 7.64306C2.70833 7.45488 2.82894 7.28584 2.98004 7.14662L7.64671 2.75328C7.74046 2.65965 7.86754 2.60706 8.00004 2.60706C8.13254 2.60706 8.25963 2.65965 8.35338 2.75328C8.44701 2.84703 8.49961 2.97412 8.49961 3.10662C8.49961 3.23912 8.44701 3.3662 8.35338 3.45995L3.68671 7.85328C3.63437 7.89896 3.59241 7.95532 3.56367 8.01857C3.53492 8.08181 3.52004 8.15048 3.52004 8.21995C3.52004 8.28942 3.53492 8.35809 3.56367 8.42133C3.59241 8.48458 3.63437 8.54094 3.68671 8.58662C3.80747 8.6899 3.96114 8.74666 4.12004 8.74666C4.27895 8.74666 4.43262 8.6899 4.55338 8.58662L9.60004 3.83328C9.72845 3.70745 9.83007 3.55694 9.89881 3.39082C9.96755 3.2247 10.002 3.04639 10 2.86662C9.99453 2.6349 9.94205 2.40672 9.8458 2.19587C9.74954 1.98503 9.61151 1.79591 9.44004 1.63995C9.11094 1.33492 8.67877 1.16544 8.23004 1.16544C7.78132 1.16544 7.34915 1.33492 7.02004 1.63995L2.00004 6.39328C1.74582 6.62624 1.54283 6.90952 1.40396 7.22514C1.26509 7.54075 1.19338 7.8818 1.19338 8.22662C1.19338 8.57143 1.26509 8.91248 1.40396 9.22809C1.54283 9.54371 1.74582 9.82699 2.00004 10.0599C2.54305 10.5661 3.25775 10.8475 4.00004 10.8475C4.74234 10.8475 5.45704 10.5661 6.00004 10.0599L10.9934 5.33328C11.0393 5.28611 11.0943 5.24862 11.155 5.22302C11.2157 5.19742 11.2808 5.18424 11.3467 5.18424C11.4126 5.18424 11.4778 5.19742 11.5385 5.22302C11.5991 5.24862 11.6541 5.28611 11.7 5.33328C11.7937 5.42703 11.8463 5.55412 11.8463 5.68662C11.8463 5.81912 11.7937 5.9462 11.7 6.03995L6.66671 10.7866C5.93205 11.4689 4.96252 11.8414 3.96004 11.8266Z" fill="black"/>
</svg>
