<svg width="12" height="13" viewBox="0 0 12 13" fill="none" xmlns="http://www.w3.org/2000/svg">
<path d="M0 6.5C0 3.18629 2.68629 0.5 6 0.5C9.31371 0.5 12 3.18629 12 6.5C12 9.81371 9.31371 12.5 6 12.5C2.68629 12.5 0 9.81371 0 6.5Z" fill="#86909C"/>
<path d="M8.00464 8.97219L8.99388 3.98868C8.99388 3.65686 8.53762 3.85802 8.5397 3.85802L2.98795 6.03559C2.98795 6.03559 2.72457 6.12476 2.7453 6.29067C2.76604 6.45658 2.97965 6.53332 2.97965 6.53332L4.37537 7.00408L4.37814 7.00542C4.37787 7.00455 4.37773 7.0041 4.37773 7.0041L7.73118 4.87424C7.73118 4.87424 7.92405 4.75603 7.91783 4.87424C7.91783 4.87424 7.95309 4.89497 7.84939 4.99245C7.7457 5.08992 5.21558 7.36288 5.21558 7.36288L5.21018 7.40838L7.48617 9.15261C7.86569 9.31852 8.00464 8.97219 8.00464 8.97219Z" fill="white"/>
</svg>
