<svg width="44" height="53" viewBox="0 0 44 53" fill="none" xmlns="http://www.w3.org/2000/svg">
<path d="M43.25 30.25C43.25 35.8859 41.0112 41.2909 37.026 45.276C33.0409 49.2612 27.6359 51.5 22 51.5C16.3641 51.5 10.9591 49.2612 6.97398 45.276C2.98883 41.2909 0.75 35.8859 0.75 30.25C0.75 24.6141 2.98883 19.2091 6.97398 15.224C10.9591 11.2388 16.3641 9 22 9C27.6359 9 33.0409 11.2388 37.026 15.224C41.0112 19.2091 43.25 24.6141 43.25 30.25Z" stroke="#F69912" stroke-width="1.5" stroke-linecap="round" stroke-linejoin="round"/>
<path d="M22 44C18.3533 44 14.8559 42.5513 12.2773 39.9727C9.69866 37.3941 8.25 33.8967 8.25 30.25C8.25 26.6033 9.69866 23.1059 12.2773 20.5273C14.8559 17.9487 18.3533 16.5 22 16.5M22 30.25L29.5 19M25.75 5.25C25.75 4.25544 25.3549 3.30161 24.6517 2.59835C23.9484 1.89509 22.9946 1.5 22 1.5C21.0054 1.5 20.0516 1.89509 19.3483 2.59835C18.6451 3.30161 18.25 4.25544 18.25 5.25C18.25 6.24456 18.6451 7.19839 19.3483 7.90165C20.0516 8.60491 21.0054 9 22 9C22.9946 9 23.9484 8.60491 24.6517 7.90165C25.3549 7.19839 25.75 6.24456 25.75 5.25Z" stroke="#F69912" stroke-width="1.5" stroke-linecap="round" stroke-linejoin="round"/>
</svg>
