<svg width="20" height="19" viewBox="0 0 20 19" fill="none" xmlns="http://www.w3.org/2000/svg">
<path d="M18.53 13.75C18.44 13.75 16.42 13.39 16.42 7.5C16.42 3.34 14 0.75 10 0.75C6 0.75 3.58 3.34 3.58 7.5C3.58 13.5 1.49 13.75 1.5 13.75C1.30109 13.75 1.11032 13.829 0.96967 13.9697C0.829018 14.1103 0.75 14.3011 0.75 14.5C0.75 14.6989 0.829018 14.8897 0.96967 15.0303C1.11032 15.171 1.30109 15.25 1.5 15.25H6.33C6.49694 16.1007 6.95423 16.867 7.62366 17.4178C8.29309 17.9686 9.13308 18.2698 10 18.2698C10.8669 18.2698 11.7069 17.9686 12.3763 17.4178C13.0458 16.867 13.5031 16.1007 13.67 15.25H18.51C18.7089 15.25 18.8997 15.171 19.0403 15.0303C19.181 14.8897 19.26 14.6989 19.26 14.5C19.26 14.3011 19.181 14.1103 19.0403 13.9697C18.8997 13.829 18.7089 13.75 18.51 13.75H18.53ZM10 16.75C9.5363 16.7491 9.0843 16.6044 8.70636 16.3357C8.32843 16.067 8.04319 15.6877 7.89 15.25H12.11C11.9568 15.6877 11.6716 16.067 11.2936 16.3357C10.9157 16.6044 10.4637 16.7491 10 16.75ZM3.76 13.75C4.48 12.66 5.08 10.75 5.08 7.5C5.08 4.25 6.88 2.25 10 2.25C13.12 2.25 14.92 4.16 14.92 7.5C14.92 10.84 15.52 12.66 16.24 13.75H3.76Z" fill="#F69912"/>
</svg>
