<svg width="19" height="16" viewBox="0 0 19 16" fill="none" xmlns="http://www.w3.org/2000/svg">
<path d="M15 2.75H13V2C13 1.04 12.21 0.25 11.25 0.25H2C1.04 0.25 0.25 1.04 0.25 2V11C0.25 11.96 1.04 12.75 2 12.75H2.28C2.41 14.42 3.8 15.75 5.5 15.75C7.2 15.75 8.59 14.42 8.72 12.75H10.27C10.4 14.42 11.79 15.75 13.49 15.75C15.19 15.75 16.58 14.42 16.71 12.75H16.99C17.95 12.75 18.74 11.96 18.74 11V6.5C18.74 4.43 17.06 2.75 14.99 2.75H15ZM1.75 11V2C1.75 1.86 1.86 1.75 2 1.75H11.25C11.39 1.75 11.5 1.86 11.5 2V9.94C11.5 9.94 11.45 10 11.42 10.02C11.27 10.15 11.13 10.29 11 10.44C10.96 10.49 10.92 10.53 10.89 10.58C10.74 10.79 10.6 11 10.51 11.24H8.51C8.51 11.24 8.51 11.24 8.51 11.23C8.44 11.06 8.34 10.89 8.24 10.74C8.21 10.7 8.18 10.66 8.15 10.61C8.07 10.49 7.98 10.39 7.88 10.28C7.84 10.24 7.81 10.2 7.77 10.16C7.64 10.04 7.51 9.93 7.37 9.83C7.35 9.82 7.34 9.8 7.32 9.79C7.17 9.69 7.01 9.61 6.85 9.53C6.79 9.5 6.73 9.48 6.67 9.46C6.54 9.41 6.42 9.37 6.29 9.34C6.23 9.33 6.17 9.31 6.11 9.3C5.92 9.26 5.72 9.24 5.52 9.24C5.32 9.24 5.13 9.26 4.93 9.3C4.87 9.31 4.81 9.33 4.75 9.34C4.62 9.37 4.49 9.41 4.37 9.46C4.31 9.48 4.25 9.5 4.19 9.53C4.03 9.6 3.87 9.69 3.72 9.79C3.7 9.8 3.69 9.81 3.67 9.83C3.53 9.93 3.39 10.04 3.27 10.16C3.23 10.2 3.19 10.24 3.16 10.28C3.06 10.38 2.97 10.49 2.89 10.61C2.86 10.65 2.83 10.69 2.8 10.74C2.7 10.9 2.61 11.06 2.53 11.23C2.53 11.23 2.53 11.23 2.53 11.24H2.03C1.89 11.24 1.78 11.13 1.78 10.99L1.75 11ZM5.5 14.25C4.54 14.25 3.75 13.46 3.75 12.5C3.75 12.38 3.76 12.26 3.79 12.15C3.83 11.97 3.9 11.8 3.99 11.65C4 11.62 4.02 11.6 4.03 11.57C4.12 11.43 4.23 11.3 4.36 11.19C4.39 11.17 4.41 11.15 4.44 11.13C4.57 11.03 4.72 10.94 4.88 10.88C4.9 10.88 4.93 10.86 4.96 10.86C5.13 10.8 5.32 10.76 5.51 10.76C5.7 10.76 5.88 10.8 6.06 10.86C6.09 10.86 6.11 10.87 6.14 10.88C6.3 10.94 6.45 11.03 6.58 11.13C6.61 11.15 6.63 11.17 6.66 11.19C6.79 11.3 6.9 11.43 6.99 11.57C7.01 11.59 7.02 11.62 7.03 11.65C7.12 11.81 7.19 11.97 7.23 12.15C7.25 12.26 7.27 12.38 7.27 12.5C7.27 13.46 6.48 14.25 5.52 14.25H5.5ZM13.5 14.25C12.54 14.25 11.75 13.46 11.75 12.5C11.75 12.38 11.76 12.26 11.79 12.15C11.82 12.03 11.85 11.91 11.9 11.8C11.9 11.8 11.9 11.79 11.9 11.78C11.95 11.68 12 11.58 12.07 11.49C12.08 11.47 12.1 11.46 12.11 11.44C12.17 11.36 12.23 11.29 12.3 11.22C12.32 11.2 12.34 11.19 12.36 11.17C12.43 11.11 12.51 11.05 12.59 11C12.61 10.99 12.64 10.97 12.67 10.96C12.76 10.91 12.86 10.87 12.96 10.84C13 10.83 13.04 10.81 13.09 10.8C13.22 10.77 13.36 10.75 13.5 10.75C13.69 10.75 13.87 10.79 14.05 10.85C14.08 10.85 14.1 10.86 14.13 10.87C14.29 10.93 14.44 11.02 14.57 11.12C14.6 11.14 14.62 11.16 14.65 11.18C14.78 11.29 14.89 11.42 14.98 11.56C15 11.58 15.01 11.61 15.02 11.64C15.11 11.8 15.18 11.96 15.22 12.14C15.24 12.25 15.26 12.37 15.26 12.49C15.26 13.45 14.47 14.24 13.51 14.24L13.5 14.25ZM13 7.25V4.25H15C16.24 4.25 17.25 5.26 17.25 6.5V7.25H13Z" fill="white"/>
</svg>
