<svg width="17" height="18" viewBox="0 0 17 18" fill="none" xmlns="http://www.w3.org/2000/svg">
<path d="M1 17.25C0.801893 17.2474 0.612629 17.1676 0.472534 17.0275C0.332439 16.8874 0.25259 16.6981 0.25 16.5V1.5C0.25 1.30109 0.329018 1.11032 0.46967 0.96967C0.610322 0.829018 0.801088 0.75 1 0.75C1.19891 0.75 1.38968 0.829018 1.53033 0.96967C1.67098 1.11032 1.75 1.30109 1.75 1.5V16.5C1.74741 16.6981 1.66756 16.8874 1.52747 17.0275C1.38737 17.1676 1.19811 17.2474 1 17.25Z" fill="#F69912"/>
<path d="M16 17.25H1C0.801088 17.25 0.610322 17.171 0.46967 17.0303C0.329018 16.8897 0.25 16.6989 0.25 16.5C0.25 16.3011 0.329018 16.1103 0.46967 15.9697C0.610322 15.829 0.801088 15.75 1 15.75H16C16.1989 15.75 16.3897 15.829 16.5303 15.9697C16.671 16.1103 16.75 16.3011 16.75 16.5C16.75 16.6989 16.671 16.8897 16.5303 17.0303C16.3897 17.171 16.1989 17.25 16 17.25Z" fill="#F69912"/>
<path d="M4.5 13.75C4.30189 13.7474 4.11263 13.6676 3.97253 13.5275C3.83244 13.3874 3.75259 13.1981 3.75 13V9C3.75 8.80109 3.82902 8.61032 3.96967 8.46967C4.11032 8.32902 4.30109 8.25 4.5 8.25C4.69891 8.25 4.88968 8.32902 5.03033 8.46967C5.17098 8.61032 5.25 8.80109 5.25 9V13C5.24741 13.1981 5.16756 13.3874 5.02747 13.5275C4.88737 13.6676 4.69811 13.7474 4.5 13.75Z" fill="#F69912"/>
<path d="M8 13.75C7.80189 13.7474 7.61263 13.6676 7.47253 13.5275C7.33244 13.3874 7.25259 13.1981 7.25 13V5C7.25 4.80109 7.32902 4.61032 7.46967 4.46967C7.61032 4.32902 7.80109 4.25 8 4.25C8.19891 4.25 8.38968 4.32902 8.53033 4.46967C8.67098 4.61032 8.75 4.80109 8.75 5V13C8.74741 13.1981 8.66756 13.3874 8.52747 13.5275C8.38737 13.6676 8.19811 13.7474 8 13.75Z" fill="#F69912"/>
<path d="M11.5 13.75C11.3019 13.7474 11.1126 13.6676 10.9725 13.5275C10.8324 13.3874 10.7526 13.1981 10.75 13V9C10.75 8.80109 10.829 8.61032 10.9697 8.46967C11.1103 8.32902 11.3011 8.25 11.5 8.25C11.6989 8.25 11.8897 8.32902 12.0303 8.46967C12.171 8.61032 12.25 8.80109 12.25 9V13C12.2474 13.1981 12.1676 13.3874 12.0275 13.5275C11.8874 13.6676 11.6981 13.7474 11.5 13.75Z" fill="#F69912"/>
<path d="M15 13.75C14.8019 13.7474 14.6126 13.6676 14.4725 13.5275C14.3324 13.3874 14.2526 13.1981 14.25 13V5C14.25 4.80109 14.329 4.61032 14.4697 4.46967C14.6103 4.32902 14.8011 4.25 15 4.25C15.1989 4.25 15.3897 4.32902 15.5303 4.46967C15.671 4.61032 15.75 4.80109 15.75 5V13C15.7474 13.1981 15.6676 13.3874 15.5275 13.5275C15.3874 13.6676 15.1981 13.7474 15 13.75Z" fill="#F69912"/>
</svg>
