<svg width="17" height="16" viewBox="0 0 17 16" fill="none" xmlns="http://www.w3.org/2000/svg">
<path d="M13.8332 5.7998H3.1665C3.10084 5.7998 3.03582 5.78687 2.97516 5.76174C2.9145 5.73662 2.85938 5.69979 2.81295 5.65336C2.76652 5.60693 2.72969 5.55181 2.70456 5.49115C2.67944 5.43048 2.6665 5.36547 2.6665 5.2998C2.6665 5.23414 2.67944 5.16913 2.70456 5.10846C2.72969 5.0478 2.76652 4.99268 2.81295 4.94625C2.85938 4.89982 2.9145 4.86299 2.97516 4.83787C3.03582 4.81274 3.10084 4.7998 3.1665 4.7998H13.8332C13.9658 4.7998 14.093 4.85248 14.1867 4.94625C14.2805 5.04002 14.3332 5.1672 14.3332 5.2998C14.3332 5.43241 14.2805 5.55959 14.1867 5.65336C14.093 5.74713 13.9658 5.7998 13.8332 5.7998Z" fill="black"/>
<path d="M11.4597 13.8334H5.53967C5.3284 13.8478 5.11636 13.8202 4.91585 13.7521C4.71534 13.684 4.53035 13.5767 4.37159 13.4366C4.21284 13.2964 4.08349 13.1261 3.99103 12.9356C3.89858 12.7451 3.84487 12.5381 3.83301 12.3267V5.33336C3.83301 5.20076 3.88569 5.07358 3.97945 4.97981C4.07322 4.88604 4.2004 4.83336 4.33301 4.83336C4.46562 4.83336 4.59279 4.88604 4.68656 4.97981C4.78033 5.07358 4.83301 5.20076 4.83301 5.33336V12.3267C4.83301 12.6 5.14634 12.8334 5.49967 12.8334H11.4197C11.793 12.8334 12.0863 12.6 12.0863 12.3267V5.33336C12.0863 5.19015 12.1432 5.0528 12.2445 4.95153C12.3458 4.85026 12.4831 4.79336 12.6263 4.79336C12.7696 4.79336 12.9069 4.85026 13.0082 4.95153C13.1094 5.0528 13.1663 5.19015 13.1663 5.33336V12.3267C13.1545 12.5381 13.1008 12.7451 13.0083 12.9356C12.9159 13.1261 12.7865 13.2964 12.6278 13.4366C12.469 13.5767 12.284 13.684 12.0835 13.7521C11.883 13.8202 11.6709 13.8478 11.4597 13.8334ZM11.5397 5.1667C11.4738 5.16759 11.4083 5.15527 11.3473 5.13046C11.2862 5.10565 11.2307 5.06886 11.1841 5.02225C11.1375 4.97564 11.1007 4.92016 11.0759 4.8591C11.0511 4.79803 11.0388 4.73261 11.0397 4.6667V3.67336C11.0397 3.40003 10.7197 3.1667 10.373 3.1667H6.64634C6.27967 3.1667 5.97967 3.40003 5.97967 3.67336V4.6667C5.97967 4.79931 5.927 4.92648 5.83323 5.02025C5.73946 5.11402 5.61228 5.1667 5.47967 5.1667C5.34707 5.1667 5.21989 5.11402 5.12612 5.02025C5.03235 4.92648 4.97967 4.79931 4.97967 4.6667V3.67336C5.00549 3.25424 5.19436 2.86187 5.50587 2.58027C5.81737 2.29867 6.22674 2.15022 6.64634 2.1667H10.353C10.776 2.14482 11.1905 2.29084 11.5063 2.573C11.8222 2.85515 12.0139 3.25062 12.0397 3.67336V4.6667C12.0406 4.73292 12.0283 4.79865 12.0035 4.86009C11.9788 4.92152 11.9421 4.97743 11.8956 5.02457C11.8491 5.07171 11.7937 5.10913 11.7326 5.13468C11.6715 5.16022 11.6059 5.17337 11.5397 5.17336V5.1667Z" fill="black"/>
<path d="M7.31299 11.3335C7.18092 11.3317 7.05474 11.2785 6.96134 11.1851C6.86795 11.0917 6.81471 10.9655 6.81299 10.8335V7.81348C6.81299 7.68087 6.86567 7.55369 6.95943 7.45992C7.0532 7.36615 7.18038 7.31348 7.31299 7.31348C7.4456 7.31348 7.57277 7.36615 7.66654 7.45992C7.76031 7.55369 7.81299 7.68087 7.81299 7.81348V10.8268C7.81387 10.893 7.80159 10.9588 7.77686 11.0202C7.75213 11.0816 7.71544 11.1375 7.66892 11.1847C7.6224 11.2318 7.56698 11.2692 7.50588 11.2948C7.44478 11.3203 7.37921 11.3335 7.31299 11.3335Z" fill="black"/>
<path d="M9.68652 11.3335C9.55392 11.3335 9.42674 11.2808 9.33297 11.187C9.2392 11.0933 9.18652 10.9661 9.18652 10.8335V7.81348C9.18652 7.68087 9.2392 7.55369 9.33297 7.45992C9.42674 7.36615 9.55392 7.31348 9.68652 7.31348C9.81913 7.31348 9.94631 7.36615 10.0401 7.45992C10.1338 7.55369 10.1865 7.68087 10.1865 7.81348V10.8268C10.1865 10.96 10.1341 11.0879 10.0405 11.1827C9.94691 11.2776 9.81974 11.3317 9.68652 11.3335Z" fill="black"/>
</svg>
