<svg width="17" height="16" viewBox="0 0 17 16" fill="none" xmlns="http://www.w3.org/2000/svg">
<path fill-rule="evenodd" clip-rule="evenodd" d="M1.5 4.25C1.5 3.55965 2.05964 3 2.75 3H13.0539C13.7442 3 14.3039 3.55964 14.3039 4.25V6.95785H12.8039V6.07571L8.40772 10.0903C8.12128 10.3518 7.68265 10.3518 7.39622 10.0903L3 6.07565V10.1098C3 11.0763 3.7835 11.8598 4.75 11.8598H9.12397V13.3598H4.75C2.95507 13.3598 1.5 11.9047 1.5 10.1098V4.25ZM7.90197 8.52076L3.499 4.5H12.3049L7.90197 8.52076ZM13.4728 9.03437L12.6257 9.87682L15.2341 9.87682L15.2341 11.3768L12.6245 11.3768L13.4728 12.2205L12.4092 13.2782L10.2756 11.1563C9.9819 10.8642 9.9819 10.3906 10.2756 10.0986L12.4092 7.97663L13.4728 9.03437Z" fill="#0B1F33"/>
</svg>
