<svg width="12" height="13" viewBox="0 0 12 13" fill="none" xmlns="http://www.w3.org/2000/svg">
<path d="M0 6.5C0 3.18629 2.68629 0.5 6 0.5C9.31371 0.5 12 3.18629 12 6.5C12 9.81371 9.31371 12.5 6 12.5C2.68629 12.5 0 9.81371 0 6.5Z" fill="#86909C"/>
<path d="M7.61961 6.98V7.04L8.84961 9.38H7.34961L6.41961 7.37V7.31H4.88961V9.38H3.59961V3.5H6.50961C7.52961 3.5 8.30961 4.28 8.30961 5.3V5.57C8.33961 6.17 8.03961 6.62 7.61961 6.98ZM4.94961 6.2H6.11961C6.32961 6.2 6.53961 6.14 6.65961 6.02C6.80961 5.9 6.89961 5.72 6.89961 5.51V5.45C6.89961 5 6.56961 4.7 6.11961 4.7H4.94961V6.2Z" fill="white"/>
<path d="M4.49961 7.1H6.59961V7.4H4.49961V7.1Z" fill="white"/>
</svg>
