<svg width="19" height="18" viewBox="0 0 19 18" fill="none" xmlns="http://www.w3.org/2000/svg">
<path d="M3.62 17.75C2.86 17.75 2.14 17.45 1.59 16.91C0.47 15.79 0.47 13.98 1.59 12.86L7.1 7.34997C6.6 5.40997 7.14 3.31997 8.56 1.89997C9.99 0.469972 12.09 -0.0900282 14.04 0.439972C14.3 0.509972 14.5 0.709972 14.57 0.969972C14.64 1.22997 14.57 1.49997 14.38 1.68997L11.93 4.13997L12.45 6.04997L14.36 6.56997L16.81 4.11997C17 3.92997 17.28 3.85997 17.53 3.92997C17.79 3.99997 17.99 4.19997 18.06 4.45997C18.59 6.40997 18.04 8.50997 16.6 9.93997C15.18 11.36 13.09 11.9 11.15 11.4L5.64 16.91C5.1 17.45 4.38 17.75 3.62 17.75ZM12.18 1.76997C11.22 1.84997 10.31 2.26997 9.61 2.96997C8.47 4.10997 8.1 5.77997 8.65 7.31997C8.75 7.58997 8.68 7.89997 8.47 8.09997L2.64 13.93C2.11 14.46 2.11 15.33 2.64 15.86C2.9 16.12 3.24 16.26 3.61 16.26C3.97 16.26 4.32 16.12 4.57 15.86L10.4 10.03C10.61 9.81997 10.91 9.75997 11.18 9.84997C12.72 10.39 14.39 10.03 15.53 8.88997C16.23 8.18997 16.64 7.27997 16.73 6.31997L15.1 7.94997C14.91 8.13997 14.63 8.20997 14.37 8.13997L11.63 7.38997C11.37 7.31997 11.17 7.11997 11.1 6.85997L10.35 4.11997C10.28 3.85997 10.35 3.57997 10.54 3.38997L12.17 1.75997L12.18 1.76997Z" fill="#F69912"/>
</svg>
