<svg width="12" height="13" viewBox="0 0 12 13" fill="none" xmlns="http://www.w3.org/2000/svg">
<path d="M0 6.5C0 3.18629 2.68629 0.5 6 0.5C9.31371 0.5 12 3.18629 12 6.5C12 9.81371 9.31371 12.5 6 12.5C2.68629 12.5 0 9.81371 0 6.5Z" fill="#86909C"/>
<path d="M6.38538 9.1449C3.65038 9.1449 2.09039 7.2699 2.02539 4.1499H3.39539C3.44039 6.4399 4.45037 7.40989 5.25037 7.60989V4.1499H6.54041V6.12489C7.33041 6.03989 8.16031 5.1399 8.44031 4.1499H9.73035C9.51535 5.3699 8.61534 6.26989 7.97534 6.63989C8.61534 6.93989 9.6404 7.7249 10.0304 9.1449H8.61035C8.30535 8.1949 7.54541 7.45989 6.54041 7.35989V9.1449H6.38538Z" fill="white"/>
</svg>
