<svg width="6" height="10" viewBox="0 0 6 10" fill="none" xmlns="http://www.w3.org/2000/svg">
<path d="M1.25032 9.24996C1.14961 9.24657 1.05065 9.22265 0.959516 9.17966C0.868379 9.13667 0.786983 9.07552 0.720317 8.99996C0.579866 8.85934 0.500977 8.66871 0.500977 8.46996C0.500977 8.27121 0.579866 8.08059 0.720317 7.93996L3.72032 4.93996L0.720317 1.93996C0.660993 1.79595 0.647975 1.63704 0.683071 1.4853C0.718167 1.33355 0.799636 1.1965 0.916167 1.09316C1.0327 0.989817 1.17851 0.925321 1.33337 0.908621C1.48822 0.891921 1.64443 0.923846 1.78032 0.999964L5.28032 4.49996C5.42077 4.64059 5.49966 4.83121 5.49966 5.02996C5.49966 5.22871 5.42077 5.41934 5.28032 5.55996L1.78032 8.99996C1.71365 9.07552 1.63225 9.13667 1.54112 9.17966C1.44998 9.22265 1.35103 9.24657 1.25032 9.24996Z" fill="#F69912"/>
</svg>
