<svg width="12" height="8" viewBox="0 0 12 8" fill="none" xmlns="http://www.w3.org/2000/svg">
<path d="M5.99969 7.25016C5.90115 7.25063 5.80351 7.23141 5.7125 7.19363C5.62149 7.15585 5.53894 7.10027 5.46969 7.03016L0.469692 2.03016C0.369966 1.88426 0.324964 1.70784 0.342622 1.532C0.360279 1.35616 0.439462 1.1922 0.566205 1.06905C0.692948 0.945892 0.859108 0.871447 1.03538 0.858844C1.21165 0.846241 1.38672 0.896289 1.52969 1.00016L5.99969 5.44016L10.4697 1.00016C10.6106 0.90877 10.7782 0.867349 10.9455 0.882536C11.1128 0.897724 11.2702 0.968641 11.3924 1.08392C11.5146 1.1992 11.5945 1.35217 11.6194 1.5183C11.6443 1.68444 11.6127 1.85412 11.5297 2.00016L6.52969 7.00016C6.46302 7.07572 6.38163 7.13687 6.29049 7.17986C6.19936 7.22285 6.1004 7.24677 5.99969 7.25016Z" fill="#626262"/>
</svg>
