<svg width="12" height="13" viewBox="0 0 12 13" fill="none" xmlns="http://www.w3.org/2000/svg">
<path d="M0 6.5C0 3.18629 2.68629 0.5 6 0.5C9.31371 0.5 12 3.18629 12 6.5C12 9.81371 9.31371 12.5 6 12.5C2.68629 12.5 0 9.81371 0 6.5Z" fill="#86909C"/>
<path d="M6 6.5C6.415 6.5 6.79 6.33 7.06 6.06C7.33 5.79 7.5 5.415 7.5 5C7.5 4.585 7.33 4.21 7.06 3.94C6.79 3.67 6.415 3.5 6 3.5C5.585 3.5 5.21 3.67 4.94 3.94C4.67 4.21 4.5 4.585 4.5 5C4.5 5.415 4.67 5.79 4.94 6.06C5.21 6.33 5.59 6.5 6 6.5ZM5.52 4.515C5.645 4.39 5.815 4.315 6 4.315C6.19 4.315 6.36 4.39 6.48 4.515C6.605 4.64 6.68 4.81 6.68 4.995C6.68 5.185 6.605 5.355 6.48 5.475C6.355 5.6 6.185 5.675 6 5.675C5.81 5.675 5.64 5.6 5.52 5.475C5.395 5.35 5.32 5.18 5.32 4.995C5.32 4.81 5.4 4.64 5.52 4.515Z" fill="white"/>
<path d="M8.08461 7.1134L7.63029 6.52893C7.60448 6.49484 7.55285 6.48997 7.52188 6.51919C7.09337 6.865 6.56677 7.08905 5.99887 7.08905C5.43097 7.08905 4.90438 6.865 4.47587 6.51919C4.44489 6.49484 4.39327 6.49971 4.36745 6.52893L3.91313 7.1134C3.89248 7.14263 3.89765 7.18159 3.92346 7.20594C4.3055 7.49818 4.74949 7.69788 5.21414 7.80016L4.25387 9.39772C4.22806 9.44155 4.2642 9.5 4.31583 9.5H5.25544C5.28642 9.5 5.31223 9.48539 5.32256 9.45616L5.99371 8.04369L6.66486 9.45616C6.67519 9.48052 6.701 9.5 6.73198 9.5H7.67159C7.72838 9.5 7.75936 9.44642 7.73355 9.39772L6.77328 7.80016C7.23793 7.69788 7.68192 7.50305 8.06396 7.20594C8.10526 7.18159 8.11043 7.14263 8.08461 7.1134Z" fill="white"/>
</svg>
