<svg width="19" height="18" viewBox="0 0 19 18" fill="none" xmlns="http://www.w3.org/2000/svg">
<path d="M3.62 17.7502C2.86 17.7502 2.14 17.4502 1.59 16.9102C0.47 15.7902 0.47 13.9802 1.59 12.8602L7.1 7.35022C6.6 5.41022 7.14 3.32022 8.56 1.90022C9.99 0.470216 12.09 -0.089784 14.04 0.440216C14.3 0.510216 14.5 0.710216 14.57 0.970216C14.64 1.23022 14.57 1.50022 14.38 1.69022L11.93 4.14022L12.45 6.05022L14.36 6.57022L16.81 4.12022C17 3.93022 17.28 3.86022 17.53 3.93022C17.79 4.00022 17.99 4.20022 18.06 4.46022C18.59 6.41022 18.04 8.51021 16.6 9.94022C15.18 11.3602 13.09 11.9002 11.15 11.4002L5.64 16.9102C5.1 17.4502 4.38 17.7502 3.62 17.7502ZM12.18 1.77022C11.22 1.85022 10.31 2.27022 9.61 2.97022C8.47 4.11022 8.1 5.78022 8.65 7.32022C8.75 7.59022 8.68 7.90022 8.47 8.10022L2.64 13.9302C2.11 14.4602 2.11 15.3302 2.64 15.8602C2.9 16.1202 3.24 16.2602 3.61 16.2602C3.97 16.2602 4.32 16.1202 4.57 15.8602L10.4 10.0302C10.61 9.82022 10.91 9.76022 11.18 9.85022C12.72 10.3902 14.39 10.0302 15.53 8.89022C16.23 8.19022 16.64 7.28022 16.73 6.32022L15.1 7.95022C14.91 8.14022 14.63 8.21022 14.37 8.14022L11.63 7.39022C11.37 7.32022 11.17 7.12022 11.1 6.86022L10.35 4.12022C10.28 3.86022 10.35 3.58022 10.54 3.39022L12.17 1.76022L12.18 1.77022Z" fill="white"/>
</svg>
